<?xml version="1.0" encoding="utf-8"?>
<!-- Generator: Adobe Illustrator 24.3.0, SVG Export Plug-In . SVG Version: 6.00 Build 0)  -->
<svg version="1.1" id="Calque_1" xmlns="http://www.w3.org/2000/svg" xmlns:xlink="http://www.w3.org/1999/xlink" x="0px" y="0px"
	 viewBox="0 0 1048 1048" style="enable-background:new 0 0 1048 1048;" xml:space="preserve">
<style type="text/css">
	.st0{fill:#F39200;}
</style>
<path class="st0" d="M482.3,217.3c85.9-7.7,169.4,0.5,250.6,24.9c0.5,0.2,1.7,0.7,3.2,1.7c0.7,0.5,1.2,1.2,1.7,2
	c32.9,74.5,65.5,148.7,98.1,223.2c0,0,0,0.2,0.2,0.5c1,4.2-0.7,5.7-5,5c-100.1-21.2-200.5-21.4-300.6-0.7c-0.5,0-1,0.7-0.7,1.2v0.2
	c0.7,1.5,1.7,2,3.2,1.7c1-0.2,1.5-0.2,1.7-0.2c82.9-3.5,168.4,4.7,248.1,28.6c19.2,5.7,74.5,24.4,81.4,43.8
	c27.4,75.7,48.8,153.9,63.8,234.6c0.2,1.5-0.7,2.7-3,3.5c-0.7,0.2-2.5,0.2-4.7-0.5c-149.4-44.1-305.4-43.8-456.8-12
	c-1,0.2-1.7,1-1.5,2c0.2,1,1,1.7,2,1.5c45.3-1,90.7-2.7,136,0.5c115.1,8.2,224.9,36.1,329.5,84.2c1.2,0.5,2,1.7,2.2,3
	c5.5,84.9-39.4,169.4-134.5,169.9c-133.3,0.7-305.1,0.5-515.3-0.5c-198.8-1-180.3-234.4-142-359.2c0.2-0.7,0.7-1.5,1.5-1.7
	c2.7-1.5,6.2-3,10.5-4.7c65.3-25.4,132-40.8,200.5-46.8c36.1-3,75.5-2.5,113.1-1.2c1,0,2-0.7,2-2c0-0.2,0-0.7-0.2-1
	c-0.7-1-1.7-1.7-3-1.7c-1.7,0-2.7,0-3.2,0c-101.6-20.7-203.5-20.7-305.1,0.5c-1.5,0.2-2.7-0.5-3-2c0-0.5,0-0.7,0-1.2
	c0.5-1.5,1-3.5,1.7-5.5c21.2-61.3,42.3-122.3,63.5-183.6c1.7-5,4.7-8.2,9.2-10c79.7-30.9,162.6-45.3,248.3-43.3
	c12,0.2,23.7,0.7,34.9,1c1,0,2-0.5,2-1.5c0-1-0.5-2-1.5-2c-87.7-17.9-175.6-19.7-264-5c-1,0.2-1.7-0.5-2-1.2c0-0.2,0-0.5,0-0.7
	c0.2-1.2,0.7-2.7,1.5-4.2c33.6-79.2,69.7-157.2,108.6-233.9c10.2-20.2,18.4-34.6,24.7-43.1c65.5-89.2,201.3-95.6,268.8-3.7
	c25.2,34.1,44.8,78.5,62,117.8c0.5,1.2,0,2.7-1.2,3.2c-0.2,0.2-0.7,0.2-1.2,0.2c-75-4.5-148.9,0-221.7,13.7c-2.5,0.5-4.2,1.7-5,4
	C480.6,217.1,481.1,217.6,482.3,217.3z"/>
</svg>
