<?xml version="1.0" encoding="utf-8"?>
<!-- Generator: Adobe Illustrator 24.3.0, SVG Export Plug-In . SVG Version: 6.00 Build 0)  -->
<svg version="1.1" id="Capa_1" xmlns="http://www.w3.org/2000/svg" xmlns:xlink="http://www.w3.org/1999/xlink" x="0px" y="0px"
	 viewBox="0 0 800 800" style="enable-background:new 0 0 800 800;" xml:space="preserve">
<g>
	<path d="M719.6,693.4l-46-518.8c-0.8-10.3-9.4-18.1-19.9-18.1h-97C556.5,70.2,486.3,0,400,0S243.5,70.2,243.3,156.5h-97
		c-10.3,0-18.9,7.8-19.9,18.1l-46,518.8c0,0.7,0,1.2,0,1.8C80.4,753,133.6,800,198.8,800h402.4c65.2,0,118.4-47,118.4-104.8
		C719.6,694.5,719.6,694,719.6,693.4z M400,39.7c64.4,0,116.7,52.3,116.9,116.7H283.1C283.3,92.1,335.6,39.7,400,39.7z M633.8,211.8
		l46.1,488.5c-0.5,33-35.6,59.8-78.7,59.8H198.8c-43.1,0-78.2-26.7-78.7-59.9L170,211.8"/>
</g>
<g>
	<g id="XMLID_1_">
		<g>
			<path d="M446.2,354.8l6.9-17.6c0.1-0.3,0.5-0.5,0.9-0.4l2.6,3.9c1.8,2.6,4.9,4,8,3.4l5.3-1.1c0.3,0.1,0.5,0.4,0.3,0.8l-11.7,30.2
				c-0.1,0.4,0.1,0.9,0.5,1c0.3,0.1,0.6,0,0.8-0.2l31.7-27c0.5-0.4,1.2-0.4,1.6,0.2l-3.2,6.9c-1.9,4,1.6,8.5,6,7.6l7.7-1.5
				c0.4,0.5,0.3,0.9-0.2,1.2c-7,5.2-13.7,10.3-20.1,15.4c-6.3,5-13.3,10.8-16.2,18.3c-5.2,13.4-10.3,26.7-15.5,40.1
				c-0.2,0.4-0.6,0.5-0.9,0.4L385,411.1c-0.3-0.1-0.5-0.5-0.4-0.8l11.7-30.4c6.4-17.3,6.2-15.6,1.4-29.6l-9.1-31.7
				c-0.1-0.5,0.1-1,0.6-1.2l4.4,1.8c2.8,1.1,6.1,0.2,7.9-2.2l3.2-4.2c0.6-0.3,1-0.1,1.2,0.6l12.4,45.4c0.1,0.4,0.6,0.7,1,0.6
				c0.3-0.1,0.5-0.3,0.6-0.5l20.9-54.2c0.1-0.4,0.6-0.6,0.9-0.4l2.5,9.6c0.8,3.2,4.7,4.5,7.3,2.5l7.3-5.5c0.6,0.2,0.9,1,0.7,1.6
				l-15.9,41.2c-0.2,0.6,0,1.2,0.6,1.5c0.2,0.1,0.4,0.1,0.5,0.1l0.8-0.1C446,355.1,446.1,355,446.2,354.8z"/>
			<path d="M420.9,609.1c-0.2,0.3-0.4,0.6-0.7,0.8c-14.6,15-29.6,29.5-45.1,43.5c-4.1,3.7-7.2,6.2-9.4,7.6
				c-22.7,14.5-54,4.1-61.3-22.7c-2.7-10-3.3-21.7-3.8-32.2c0-0.3,0.2-0.6,0.6-0.6c0.1,0,0.2,0,0.3,0c16.6,7.6,33.8,13,51.5,16.3
				c0.6,0.1,1.1,0,1.5-0.5c0.3,0,0.2-0.2-0.1-0.2c-20.2-5.8-38.4-15-54.6-27.6c-0.1-0.1-0.3-0.3-0.6-0.7c-0.1-0.2-0.2-0.4-0.2-0.6
				c-0.9-19.8-1.8-39.5-2.7-59.2c0,0,0-0.1,0-0.1c0.1-1,0.7-1.2,1.6-0.7c20.9,13.6,43.6,22.4,68.1,26.5c0.1,0,0.3-0.1,0.3-0.2l0-0.1
				c0-0.4-0.2-0.6-0.6-0.7c-0.2,0-0.4-0.1-0.4-0.1c-19.1-6.5-37.8-15.8-53.8-28.2c-3.8-3-14.8-12.1-14.6-17.1
				c0.4-19.6,2.4-39.2,6.1-58.8c0.1-0.4,0.4-0.5,1-0.5c0.2,0,0.6,0.2,1,0.5c30,23.1,65.4,36.7,102.6,42.7c0.2,0,0.5-0.1,0.5-0.3
				c0-0.2-0.1-0.5-0.3-0.5c-10.4-3.7-20.8-7.3-30.8-12c-25.4-11.9-47.8-27.9-67.4-48c-0.2-0.2-0.3-0.6-0.2-0.9
				c6.2-19.7,23.8-35,45.4-26.8c30.3,11.5,69.3,26.6,116.9,45.2c45,17.6,20.4,69,0.8,93.9c-0.1,0.1-0.3,0.3-0.5,0.3
				c-0.8,0.1-1.7,0.1-2.8,0.1c-17,0-33.5-2.3-49.6-6.9c-8.5-2.5-17.3-6-25.8-9.6c-0.2-0.1-0.5,0-0.6,0.3c0,0.1-0.1,0.2,0,0.2
				c0.1,0.3,0.2,0.5,0.5,0.7c0.4,0.2,0.6,0.2,0.7,0.3c21.2,13.6,44.4,22.5,69.2,26.6c0.4,0.1,0.6,0.3,0.5,0.7c0,0.1-0.1,0.2-0.1,0.3
				c-0.2,0.3-0.5,0.7-0.9,1.1c-10.2,12-20.3,24-30.5,36.1c-0.8,1-1.8,1.5-3,1.5c-20.8,0-40.9-4-60.1-11.9c-2.7-1.1-5.3-2.2-7.8-3.3
				c-0.2-0.1-0.5-0.1-0.6,0.2c-0.1,0.2-0.1,0.5,0.2,0.6c18.3,11.7,38.1,19.8,59.5,24.2c0.2,0,0.4,0.3,0.3,0.5
				C420.9,609,420.9,609.1,420.9,609.1z"/>
		</g>
		<g>
		</g>
	</g>
</g>
</svg>
